<?xml version="1.0" standalone="no"?>
<!DOCTYPE svg PUBLIC "-//W3C//DTD SVG 20010904//EN"
 "http://www.w3.org/TR/2001/REC-SVG-20010904/DTD/svg10.dtd">
<svg version="1.0" xmlns="http://www.w3.org/2000/svg"
 width="1280.000000pt" height="296.000000pt" viewBox="0 0 1280.000000 296.000000"
 preserveAspectRatio="xMidYMid meet">
<metadata>
Created by potrace 1.16, written by Peter Selinger 2001-2019
</metadata>
<g transform="translate(0.000000,296.000000) scale(0.100000,-0.100000)"
fill="#000000" stroke="none">
<path d="M592 2940 c-81 -29 -132 -62 -190 -124 -102 -107 -144 -252 -123
-416 28 -220 116 -359 384 -612 376 -354 467 -459 547 -631 50 -108 70 -190
77 -312 7 -122 -6 -191 -54 -286 -122 -243 -447 -347 -700 -224 -172 85 -275
285 -243 474 23 140 99 249 207 298 73 33 171 30 226 -7 101 -69 104 -219 5
-280 -18 -12 -45 -23 -60 -27 -32 -6 -37 -36 -14 -82 54 -103 235 -79 327 43
54 72 72 138 67 250 -3 80 -8 102 -37 160 -44 91 -120 164 -217 212 -71 36
-85 39 -180 42 -85 4 -116 0 -176 -18 -111 -33 -185 -77 -263 -155 -124 -124
-175 -265 -175 -486 0 -143 15 -232 58 -342 72 -186 225 -331 418 -397 50 -18
85 -20 281 -20 252 0 280 5 424 82 275 146 444 433 442 753 -2 391 -183 710
-657 1158 -302 286 -407 448 -367 570 26 79 123 128 210 107 52 -13 76 -30
111 -79 23 -33 24 -43 24 -175 1 -161 12 -196 86 -258 101 -87 269 -77 371 21
47 45 67 87 56 116 -5 13 -10 13 -41 0 -115 -48 -226 31 -226 160 0 98 78 242
166 305 24 17 44 38 44 45 0 36 -119 31 -205 -9 l-53 -24 -53 50 c-63 59 -115
91 -194 118 -79 27 -228 27 -303 0z"/>
<path d="M10213 2914 c-25 -25 -66 -52 -100 -66 -54 -21 -71 -23 -238 -22
-155 1 -212 6 -410 37 -372 59 -400 61 -615 61 -238 0 -301 -12 -455 -88 -175
-86 -298 -221 -351 -383 -24 -73 -26 -94 -22 -175 6 -107 30 -170 84 -217 88
-78 243 -65 323 26 52 58 54 92 8 113 -47 22 -80 76 -72 119 10 54 39 103 89
153 97 95 234 135 422 123 l114 -7 -2 -1173 -3 -1173 -22 -31 c-13 -16 -23
-39 -23 -51 0 -19 5 -20 210 -20 201 0 210 1 210 19 0 11 -10 37 -22 58 l-23
38 -3 1143 c-1 628 -1 1142 1 1142 2 0 73 -11 158 -24 200 -31 426 -50 509
-42 142 14 256 76 315 170 28 46 30 57 30 140 0 101 -24 177 -54 174 -9 0 -35
-20 -58 -44z"/>
<path d="M2090 2295 c0 -8 9 -32 20 -53 l21 -39 -191 -764 c-105 -420 -200
-779 -211 -797 -36 -63 -38 -62 161 -62 112 0 180 4 180 10 0 5 -5 29 -12 54
-10 38 -8 56 16 147 15 57 32 119 37 137 l11 32 112 0 112 0 34 -140 c33 -136
33 -140 17 -175 -32 -67 -38 -65 178 -65 215 0 217 1 174 61 -25 35 -27 43
-230 941 l-164 728 -132 0 c-110 0 -133 -3 -133 -15z m180 -930 c16 -81 30
-152 30 -157 0 -4 -30 -8 -66 -8 -58 0 -66 2 -62 18 3 9 18 81 34 159 15 78
30 141 31 139 2 -1 16 -69 33 -151z"/>
<path d="M2920 2270 c0 -12 9 -38 20 -60 19 -38 20 -59 20 -773 l0 -734 -25
-49 c-14 -27 -25 -55 -25 -61 0 -10 45 -13 190 -13 113 0 190 4 190 9 0 6 -11
31 -25 57 l-25 47 1 501 0 501 147 -292 c127 -254 150 -293 169 -293 20 0 42
39 167 288 l145 287 0 -492 c1 -469 0 -495 -19 -545 -11 -29 -20 -56 -20 -60
0 -5 81 -8 180 -8 201 0 199 -1 163 71 -17 31 -18 89 -18 784 l0 750 23 36
c43 70 45 69 -166 69 l-189 0 -127 -287 c-70 -159 -131 -291 -134 -295 -4 -4
-70 125 -147 287 l-140 294 -177 1 c-173 0 -178 -1 -178 -20z"/>
<path d="M4400 2275 c0 -9 10 -35 23 -58 l22 -42 0 -740 0 -740 -22 -48 c-13
-27 -23 -53 -23 -58 0 -5 83 -9 195 -9 220 0 212 -3 170 76 -25 47 -25 49 -25
310 l0 264 88 0 c261 0 439 145 487 396 52 269 -43 523 -229 614 -90 44 -142
50 -427 50 -227 0 -259 -2 -259 -15z m504 -272 c62 -43 100 -126 104 -230 6
-132 -33 -229 -109 -268 -16 -9 -56 -15 -94 -15 l-65 0 0 276 0 277 62 -6 c45
-4 72 -13 102 -34z"/>
<path d="M5500 2278 c0 -7 9 -37 20 -66 19 -50 20 -76 20 -785 0 -708 -1 -733
-20 -776 -35 -77 -63 -71 365 -71 l385 0 0 185 c0 102 -2 185 -5 185 -3 0 -33
-19 -67 -42 l-63 -43 -147 -3 -148 -3 0 656 c0 636 1 657 20 697 39 81 45 78
-170 78 -145 0 -190 -3 -190 -12z"/>
<path d="M6440 2276 c0 -8 9 -33 20 -57 19 -43 20 -68 20 -784 0 -716 -1 -741
-20 -784 -35 -77 -64 -71 375 -71 l395 0 0 160 c0 114 -3 160 -12 160 -6 0
-36 -12 -67 -28 -53 -25 -65 -27 -213 -30 l-158 -3 0 277 0 277 73 -6 c39 -3
97 -15 127 -26 30 -12 58 -21 63 -21 4 0 7 74 7 165 0 131 -3 165 -13 165 -8
0 -40 -9 -72 -20 -34 -12 -84 -20 -122 -20 l-63 0 0 201 0 201 138 -4 c124 -3
142 -6 196 -31 32 -15 62 -27 67 -27 5 0 9 72 9 160 l0 160 -375 0 c-314 0
-375 -2 -375 -14z"/>
<path d="M9633 2258 c3 -18 12 -51 21 -73 13 -35 15 -130 15 -750 0 -677 -1
-713 -19 -765 -35 -99 -73 -90 370 -90 l390 0 0 160 c0 89 -4 160 -9 160 -5 0
-38 -13 -73 -30 -61 -29 -67 -30 -215 -30 l-153 0 0 276 0 277 80 -6 c47 -4
100 -15 127 -27 25 -11 49 -20 54 -20 5 0 9 74 9 165 0 128 -3 165 -13 165 -7
0 -38 -9 -70 -20 -34 -12 -82 -20 -122 -20 l-65 0 0 201 0 201 138 -4 c122 -3
144 -7 199 -31 34 -15 65 -27 68 -27 3 0 5 72 5 160 l0 160 -371 0 -371 0 5
-32z"/>
<path d="M10600 2275 c0 -8 13 -34 30 -57 28 -41 340 -725 340 -746 0 -22
-355 -771 -386 -815 -57 -79 -63 -77 176 -77 l210 0 -6 57 c-6 56 -3 66 87
281 51 122 96 219 100 215 5 -5 51 -104 104 -220 86 -193 95 -218 95 -273 l0
-60 210 0 c144 0 210 3 210 11 0 6 -14 30 -30 53 -17 23 -113 219 -214 435
l-184 393 169 345 c93 191 185 368 204 395 58 80 63 78 -170 78 l-206 0 7 -59
c6 -56 4 -63 -71 -237 -42 -98 -82 -189 -89 -202 -11 -21 -20 -5 -100 177 -83
188 -88 204 -84 258 l3 58 -202 3 c-175 2 -203 0 -203 -13z"/>
<path d="M11880 2110 c0 -99 2 -180 5 -180 3 0 22 10 43 23 66 41 119 57 192
57 l70 0 0 -657 0 -658 -25 -40 c-47 -77 -51 -75 175 -75 226 0 218 -3 175 78
l-25 47 0 652 0 653 69 0 c75 0 136 -17 193 -55 21 -14 40 -25 43 -25 3 0 5
81 5 180 l0 180 -460 0 -460 0 0 -180z"/>
</g>
</svg>
